<svg width="45" height="44" viewBox="0 0 45 44" fill="none" xmlns="http://www.w3.org/2000/svg">
<path fill-rule="evenodd" clip-rule="evenodd" d="M10.1613 0H34.8387C40.4274 0 45 4.49169 45 9.98141V34.0185C45 39.5084 40.4274 44 34.8387 44H25.2259V28.7329H31.3126L32.5752 21.9789H25.2259V19.5903C25.2259 16.0211 26.6513 14.6484 30.3406 14.6484C31.4867 14.6484 32.409 14.6757 32.9401 14.7306V8.60816C31.9339 8.33362 29.4742 8.05898 28.0489 8.05898C20.5303 8.05898 17.0646 11.5459 17.0646 19.0687V21.9789H12.4248V28.7329H17.0646V44H10.1613C4.5726 44 0 39.5084 0 34.0185V9.98141C0 4.49169 4.5726 0 10.1613 0Z" fill="white"/>
</svg>
