<svg width="45" height="45" viewBox="0 0 45 45" fill="none" xmlns="http://www.w3.org/2000/svg">
<path d="M14.9997 22.5138C14.9924 18.3723 18.3444 15.008 22.4851 15.0007C26.6266 14.9926 29.9916 18.3432 29.9996 22.4855C30.0076 26.6277 26.6557 29.9913 22.5135 29.9994C18.3727 30.0073 15.0077 26.6561 14.9997 22.5138ZM10.9472 22.5218C10.9596 28.9029 16.1421 34.0643 22.5215 34.0519C28.9017 34.0395 34.066 28.8584 34.0536 22.4774C34.0412 16.0985 28.858 10.9342 22.4771 10.9466C16.0975 10.959 10.9348 16.1423 10.9472 22.5218ZM31.7865 10.4728C31.7894 11.9628 33.0008 13.1694 34.491 13.1665C35.9817 13.1636 37.1883 11.9526 37.1861 10.4626C37.1832 8.97251 35.9716 7.76524 34.4808 7.76814C32.99 7.77104 31.7836 8.98262 31.7865 10.4728ZM13.444 40.8303C11.2504 40.7347 10.0592 40.3703 9.26541 40.0648C8.21415 39.658 7.46401 39.1703 6.67448 38.3867C5.88645 37.6 5.39725 36.8521 4.9868 35.8029C4.67848 35.0091 4.30741 33.8193 4.20458 31.6257C4.09304 29.2543 4.06755 28.5428 4.05666 22.535C4.04497 16.5287 4.06685 15.8172 4.17039 13.4435C4.26434 11.2513 4.63111 10.0587 4.93583 9.26554C5.34259 8.21287 5.82889 7.46413 6.61401 6.67461C7.40055 5.88517 8.1485 5.39738 9.19827 4.98693C9.99148 4.67711 11.1812 4.30894 13.374 4.2047C15.7469 4.09246 16.4577 4.06838 22.464 4.05669C28.4716 4.04509 29.183 4.06618 31.5568 4.17051C33.7488 4.26596 34.9415 4.62904 35.734 4.93595C36.7859 5.34271 37.536 5.82752 38.3248 6.61414C39.1136 7.40076 39.6028 8.14722 40.0132 9.19918C40.3229 9.9902 40.6912 11.1814 40.7947 13.3735C40.9077 15.7464 40.9333 16.458 40.9441 22.4643C40.9557 28.472 40.9339 29.1836 40.8297 31.5558C40.7342 33.7494 40.3704 34.9413 40.0643 35.736C39.6574 36.7864 39.1712 37.5366 38.3853 38.3262C37.5995 39.1127 36.8515 39.6033 35.801 40.0138C35.0092 40.3229 33.8181 40.6918 31.6268 40.796C29.2539 40.9075 28.543 40.933 22.5346 40.944C16.5284 40.9556 15.8177 40.933 13.444 40.8303ZM13.1816 0.155837C10.7875 0.268777 9.15239 0.652244 7.72346 1.21211C6.24434 1.78876 4.99049 2.56158 3.74324 3.81403C2.4944 5.06717 1.72746 6.32322 1.15521 7.80383C0.60123 9.23636 0.22576 10.8723 0.120028 13.2678C0.0150862 15.6678 -0.00899591 16.4332 0.00269357 22.543C0.014383 28.6521 0.0412776 29.4191 0.155711 31.8196C0.270145 34.213 0.652206 35.8475 1.21207 37.277C1.78943 38.7562 2.56146 40.0094 3.8146 41.2574C5.06705 42.5056 6.32389 43.2717 7.8052 43.8448C9.23623 44.398 10.8728 44.7749 13.2676 44.8799C15.6675 44.9857 16.4336 45.009 22.5419 44.9973C28.6532 44.9857 29.4194 44.9587 31.8192 44.8449C34.2133 44.7304 35.8469 44.347 37.2773 43.7886C38.7564 43.2097 40.0102 42.4392 41.2577 41.1861C42.5049 39.9335 43.2718 38.6768 43.8441 37.1954C44.3982 35.7643 44.775 34.1277 44.8792 31.7344C44.9842 29.333 45.0091 28.5661 44.9973 22.457C44.9856 16.3472 44.958 15.5817 44.8443 13.1825C44.7306 10.787 44.3471 9.15321 43.7879 7.72288C43.2099 6.24377 42.4386 4.99132 41.1862 3.74257C39.9338 2.49523 38.6769 1.7268 37.1956 1.15603C35.7639 0.601883 34.128 0.224304 31.7332 0.120769C29.3333 0.0144211 28.5671 -0.00895784 22.4566 0.00273163C16.3476 0.0144211 15.5814 0.0406125 13.1816 0.155837Z" fill="white"/>
</svg>
