<svg width="45" height="50" viewBox="0 0 45 50" fill="none" xmlns="http://www.w3.org/2000/svg">
<path d="M36.161 9.64766C38.05 11.5955 40.4058 12.7826 42.7801 13.3229V11.8601C40.5492 11.7021 38.2155 11.0001 36.161 9.64766ZM22.5146 3.05176e-05V32.7099C22.5146 36.9953 19.4348 39.7517 15.6897 39.7517C14.4475 39.7517 13.2678 39.4614 12.2423 38.9247C13.5434 40.586 15.5979 41.5415 17.8508 41.5415C21.5959 41.5415 24.6758 38.7851 24.6758 34.496V1.78617H30.6114C30.4496 1.21656 30.3172 0.621115 30.2143 3.05176e-05H22.5146ZM17.645 19.0159V17.395C16.8952 17.2701 16.1455 17.2296 15.5244 17.2296C7.07487 17.2296 0 24.0105 0 32.4196C0 37.9398 2.68662 42.6588 6.76983 45.452C3.92519 42.6295 2.16107 38.6786 2.16107 34.2058C2.16107 25.8114 9.21391 19.0342 17.645 19.0159Z" fill="#2DCCD3"/>
<path d="M31.0856 32.1696C31.0856 42.6147 23.0956 48.1496 15.5649 48.1496C12.305 48.1496 9.27659 47.1647 6.77002 45.452C9.58532 48.2452 13.4591 49.9359 17.726 49.9359C25.2566 49.9359 33.2466 44.4009 33.2466 33.9558V16.9356C32.4969 16.4284 31.7765 15.8368 31.0856 15.1458V32.1696ZM12.2426 38.9248C11.3237 37.7634 10.7761 36.2601 10.7761 34.496C10.7761 29.5455 14.6461 26.9287 19.8062 27.4726V19.1812C19.0565 19.0562 18.3067 19.0158 17.6819 19.0158H17.6452V25.6828C12.4851 25.1425 8.61504 27.7556 8.61504 32.7099C8.61504 35.6059 10.0962 37.8037 12.2426 38.9248ZM42.7803 13.3229V19.5157C39.3513 19.5157 36.106 18.8615 33.2466 16.9356C36.5764 20.2655 40.6156 21.3055 44.9413 21.3055V13.6463C44.2134 13.5974 43.4906 13.4892 42.7803 13.3229ZM36.1611 9.64755C34.3345 7.76948 32.9416 5.1821 32.3756 1.78616H30.6115C31.6185 5.45779 33.6913 8.01943 36.1611 9.64755Z" fill="#F1204A"/>
<path d="M15.5648 48.1496C23.0954 48.1496 31.0855 42.6146 31.0855 32.1696V15.1458C31.7765 15.8367 32.4968 16.4285 33.2466 16.9356C36.1058 18.8614 39.3512 19.5157 42.7801 19.5157V13.3229C40.406 12.7826 38.0501 11.5954 36.161 9.64763C33.6912 8.01941 31.6184 5.45777 30.6113 1.78624H24.6758V34.4961C24.6758 38.7851 21.5959 41.5415 17.8509 41.5415C15.5979 41.5415 13.5434 40.586 12.2424 38.9248C10.096 37.8038 8.61492 35.606 8.61492 32.7099C8.61492 27.7556 12.4849 25.1425 17.6451 25.6827V19.0159C9.21397 19.0343 2.16113 25.8114 2.16113 34.2057C2.16113 38.6785 3.92524 42.6294 6.76999 45.452C9.27646 47.1647 12.3049 48.1496 15.5648 48.1496Z" fill="white"/>
</svg>
